<svg width="60.000000" height="60.000000" viewBox="0 0 60 60" fill="none" xmlns="http://www.w3.org/2000/svg" xmlns:xlink="http://www.w3.org/1999/xlink">
	<desc>
		Created with Pixso.
	</desc>
	<defs>
		<clipPath id="clip341_45">
			<rect id="Иконка 6" rx="30.000000" width="60.000000" height="60.000000" fill="white" fill-opacity="0"/>
		</clipPath>
	</defs>
	<rect id="Иконка 6" rx="30.000000" width="60.000000" height="60.000000" fill="#FFFFFF" fill-opacity="1.000000"/>
	<g clip-path="url(#clip341_45)">
		<path id="Vector 879" d="M14 34L20.52 9L29.5 17.33L38.47 9L44.72 34L42 34L36.84 14.27L29.5 21.22L22.15 14.27L16.99 34L14 34Z" fill="#2056AE" fill-opacity="1.000000" fill-rule="evenodd"/>
		<path id="Vector 880" d="M18.35 34L22.7 16.5L29.58 22.61L36.02 16.5L40.37 34L37.38 34L34.66 21.5L29.58 26.22L24.33 21.5L21.39 34L18.35 34Z" fill="#2056AE" fill-opacity="1.000000" fill-rule="evenodd"/>
		<path id="Vector 881" d="M24.87 23.72L22.97 34L25.96 34L29.22 31.22L31.94 34L35.75 34L31.13 29.55L34.66 26.22L34.12 23.72L26.78 30.11L27.59 26.22L24.87 23.72Z" fill="#2056AE" fill-opacity="1.000000" fill-rule="evenodd"/>
		<path id="Форма 10" d="M15 40.61L20.45 40.61Q20.35 40.21 20.17 39.86L20.17 39.86Q20.11 39.75 20.05 39.65C19.72 39.13 19.29 38.72 18.76 38.44Q18.26 38.16 17.73 38.06L17.73 38.06Q17.42 38.01 17.1 38.01Q16.39 38.01 15.79 38.2Q15.2 38.39 14.75 38.69Q14.3 38.99 14 39.32L14 37.08Q14.32 36.81 14.67 36.61Q14.99 36.42 15.34 36.28Q16.08 36 17.18 36Q18.37 36 19.36 36.39Q19.99 36.64 20.51 37.03Q20.81 37.25 21.07 37.52C21.55 38.02 21.93 38.6 22.2 39.27C22.47 39.94 22.61 40.68 22.61 41.5Q22.61 42.72 22.2 43.73C21.93 44.4 21.55 44.98 21.07 45.47C20.59 45.96 20.02 46.34 19.36 46.6C18.7 46.86 17.98 47 17.18 47Q16.08 47 15.34 46.71C14.85 46.52 14.4 46.25 14 45.91L14 43.67C14.2 43.89 14.45 44.1 14.75 44.31Q15.2 44.61 15.79 44.8Q16.39 44.99 17.1 44.99Q17.41 44.99 17.71 44.93L17.71 44.93Q18.25 44.83 18.76 44.55Q19.06 44.38 19.31 44.17Q19.74 43.81 20.05 43.32Q20.13 43.2 20.19 43.07L20.19 43.07Q20.36 42.75 20.45 42.39L15 42.39L15 40.61ZM31.38 38.16L31.38 46.78L33.48 46.78L33.48 36.21L24.87 36.21L24.87 46.78L26.97 46.78L26.97 38.16L31.38 38.16ZM42.89 46.78L42.89 38.16L38.49 38.16L38.49 46.78L36.38 46.78L36.38 36.21L45 36.21L45 46.78L42.89 46.78Z" fill="#D22027" fill-opacity="1.000000" fill-rule="evenodd"/>
	</g>
</svg>
