<svg width="24.100006" height="24.099976" viewBox="0 0 24.1 24.1" fill="none" xmlns="http://www.w3.org/2000/svg" xmlns:xlink="http://www.w3.org/1999/xlink">
	<desc>
		Created with Pixso.
	</desc>
	<defs/>
	<rect id="done 1" width="24.000000" height="24.000000" transform="translate(0.049988 0.050049)" fill="#FFFFFF" fill-opacity="0"/>
	<path id="Vector" d="M12.05 23.6C5.67 23.6 0.5 18.42 0.5 12.05C0.5 5.67 5.67 0.5 12.05 0.5C18.42 0.5 23.6 5.67 23.6 12.05C23.6 18.42 18.42 23.6 12.05 23.6Z" stroke="#FFFFFF" stroke-opacity="1.000000" stroke-width="1.000000"/>
	<path id="Vector" d="M18.92 6.85C18.69 6.62 18.31 6.62 18.07 6.85L10.05 14.87L6.62 11.44C6.39 11.2 6.01 11.2 5.77 11.44L5.35 11.86C5.12 12.1 5.12 12.48 5.35 12.71L9.03 16.39C9.06 16.47 9.11 16.54 9.17 16.6L9.59 17.03C9.83 17.26 10.21 17.26 10.44 17.03L19.35 8.12C19.58 7.89 19.58 7.51 19.35 7.27L18.92 6.85Z" fill="#FFFFFF" fill-opacity="1.000000" fill-rule="evenodd"/>
</svg>
