<svg width="20.000000" height="20.000000" viewBox="0 0 20 20" fill="none" xmlns="http://www.w3.org/2000/svg" xmlns:xlink="http://www.w3.org/1999/xlink">
	<desc>
			Created with Pixso.
	</desc>
	<defs/>
	<rect id="map-route__233" width="20.000000" height="20.000000" fill="#FFFFFF" fill-opacity="0"/>
	<path id="Shape" d="M11 11.5L8 11.5C7.172 11.5 6.5 12.172 6.5 13C6.5 13.828 7.172 14.5 8 14.5L10.536 14.5C10.778 12.8051 12.238 11.5 14 11.5C15.932 11.5 17.5 13.068 17.5 15C17.5 16.932 15.932 18.5 14 18.5C12.605 18.5 11.399 17.682 10.837 16.5L8 16.5C6.06799 16.5 4.5 14.932 4.5 13C4.5 11.068 6.06799 9.5 8 9.5L11 9.5C11.828 9.5 12.5 8.828 12.5 8C12.5 7.172 11.828 6.5 11 6.5L8.464 6.5C8.222 8.19495 6.76199 9.5 5 9.5C3.06799 9.5 1.5 7.93201 1.5 6C1.5 4.06799 3.06799 2.5 5 2.5C6.395 2.5 7.601 3.31799 8.16299 4.5L11 4.5C12.932 4.5 14.5 6.06799 14.5 8C14.5 9.93201 12.932 11.5 11 11.5ZM14 16.5C13.172 16.5 12.5 15.828 12.5 15C12.5 14.172 13.172 13.5 14 13.5C14.828 13.5 15.5 14.172 15.5 15C15.5 15.828 14.828 16.5 14 16.5Z" clip-rule="evenodd" fill="#0F2548" fill-opacity="1.000000" fill-rule="evenodd"/>
</svg>
