<svg width="9.971497" height="9.998657" viewBox="0 0 9.9715 9.99866" fill="none" xmlns="http://www.w3.org/2000/svg" xmlns:xlink="http://www.w3.org/1999/xlink">
	<desc>
			Created with Pixso.
	</desc>
	<defs/>
	<path id="Эллипс 2" d="M9.97 5.52C9.82 6.89 9.13 8.07 8.14 8.88C7.07 9.75 5.74 10.1 4.47 9.97C3.1 9.82 1.91 9.14 1.11 8.14C0.24 7.07 -0.11 5.75 0.02 4.47C0.17 3.1 0.85 1.92 1.85 1.11C2.92 0.24 4.24 -0.11 5.52 0.02L5.41 1.02C4.31 0.9 3.27 1.24 2.48 1.89C1.62 2.58 1.12 3.56 1.02 4.58C0.9 5.67 1.24 6.72 1.89 7.51C2.58 8.37 3.56 8.86 4.58 8.97C5.67 9.09 6.71 8.75 7.51 8.1C8.37 7.41 8.86 6.43 8.97 5.41L9.97 5.52Z" fill="#FFFFFF" fill-opacity="1.000000" fill-rule="evenodd"/>
</svg>
