<svg width="7.000000" height="8.000000" viewBox="0 0 7 8" fill="none" xmlns="http://www.w3.org/2000/svg" xmlns:xlink="http://www.w3.org/1999/xlink">
	<desc>
		Created with Pixso.
	</desc>
	<defs/>
	<path id="矢量 41" d="M5.25 0.8L6.64 0.8C6.74 0.8 6.83 0.84 6.89 0.91C6.96 0.99 7 1.09 7 1.19L7 7.59C7 7.7 6.96 7.8 6.89 7.88C6.83 7.95 6.74 8 6.64 8L0.35 8C0.25 8 0.16 7.95 0.1 7.88C0.03 7.8 0 7.7 0 7.59L0 1.19C0 1.09 0.03 0.99 0.1 0.91C0.16 0.84 0.25 0.8 0.35 0.8L1.75 0.8L1.75 0L2.45 0L2.45 0.8L4.55 0.8L4.55 0L5.25 0L5.25 0.8ZM4.55 1.59L2.45 1.59L2.45 2.4L1.75 2.4L1.75 1.59L0.69 1.59L0.69 3.19L6.3 3.19L6.3 1.59L5.25 1.59L5.25 2.4L4.55 2.4L4.55 1.59ZM6.3 4L0.69 4L0.69 7.19L6.3 7.19L6.3 4Z" fill="#FFFFFF" fill-opacity="1.000000" fill-rule="evenodd"/>
</svg>
