<svg width="18.333374" height="18.333328" viewBox="0 0 18.3334 18.3333" fill="none" xmlns="http://www.w3.org/2000/svg" xmlns:xlink="http://www.w3.org/1999/xlink">
	<desc>
			Created with Pixso.
	</desc>
	<defs/>
	<path id="Vector" d="M6.41 18.33C6.17 18.33 5.94 18.23 5.76 18.06C5.59 17.89 5.5 17.65 5.5 17.41L5.5 14.66L1.83 14.66C1.34 14.66 0.88 14.47 0.53 14.12C0.19 13.78 0 13.31 0 12.83L0 1.83C0 0.81 0.82 0 1.83 0L16.5 0C16.98 0 17.45 0.19 17.79 0.53C18.14 0.88 18.33 1.34 18.33 1.83L18.33 12.83C18.33 13.31 18.14 13.78 17.79 14.12C17.45 14.47 16.98 14.66 16.5 14.66L10.9 14.66L7.51 18.06C7.33 18.24 7.1 18.33 6.87 18.33L6.41 18.33ZM7.33 12.83L7.33 15.65L10.15 12.83L16.5 12.83L16.5 1.83L1.83 1.83L1.83 12.83L7.33 12.83ZM3.66 4.58L14.66 4.58L14.66 6.41L3.66 6.41L3.66 4.58ZM3.66 8.25L11.91 8.25L11.91 10.08L3.66 10.08L3.66 8.25Z" fill="#FFFFFF" fill-opacity="1.000000" fill-rule="nonzero"/>
</svg>
