<svg width="10.000000" height="10.000000" viewBox="0 0 10 10" fill="none" xmlns="http://www.w3.org/2000/svg" xmlns:xlink="http://www.w3.org/1999/xlink">
	<desc>
			Created with Pixso.
	</desc>
	<defs/>
	<path id="Vector" d="M9.43 0.16C9.2 -0.06 8.84 -0.06 8.62 0.16L5 3.79L1.37 0.16C1.15 -0.06 0.79 -0.06 0.56 0.16L0.16 0.56C-0.06 0.79 -0.06 1.15 0.16 1.37L3.79 5L0.16 8.62C-0.06 8.84 -0.06 9.2 0.16 9.43L0.56 9.83C0.79 10.05 1.15 10.05 1.37 9.83L5 6.2L8.62 9.83C8.84 10.05 9.2 10.05 9.43 9.83L9.83 9.43C10.05 9.2 10.05 8.84 9.83 8.62L6.2 5L9.83 1.37C10.05 1.15 10.05 0.79 9.83 0.56L9.43 0.16Z" fill="#0F2548" fill-opacity="1.000000" fill-rule="evenodd"/>
</svg>

