<svg width="10.000000" height="10.000000" viewBox="0 0 10 10" fill="none" xmlns="http://www.w3.org/2000/svg" xmlns:xlink="http://www.w3.org/1999/xlink">
	<desc>
			Created with Pixso.
	</desc>
	<defs></defs>
	<rect id="фрейм 112" width="10.000000" height="10.000000" fill="#FFFFFF" fill-opacity="0"></rect>
	<path id="Vector" d="M8.1 1.61C7.94 1.46 7.69 1.46 7.53 1.61L5 4.15L2.46 1.61C2.3 1.46 2.05 1.46 1.89 1.61L1.61 1.89C1.46 2.05 1.46 2.3 1.61 2.46L4.15 5L1.61 7.53C1.46 7.69 1.46 7.94 1.61 8.1L1.89 8.38C2.05 8.53 2.3 8.53 2.46 8.38L5 5.84L7.53 8.38C7.69 8.53 7.94 8.53 8.1 8.38L8.38 8.1C8.53 7.94 8.53 7.69 8.38 7.53L5.84 5L8.38 2.46C8.53 2.3 8.53 2.05 8.38 1.89L8.1 1.61Z" fill="#FFFFFF" fill-opacity="1.000000" fill-rule="evenodd"></path>
</svg>