<svg width="24.000000" height="24.000000" viewBox="0 0 24 24" fill="none" xmlns="http://www.w3.org/2000/svg" xmlns:xlink="http://www.w3.org/1999/xlink">
	<desc>
		Created with Pixso.
	</desc>
	<defs>
		<clipPath id="clip351_638">
			<rect id="error 1" width="23.999998" height="24.000000" fill="white" fill-opacity="0"/>
		</clipPath>
	</defs>
	<rect id="error 1" width="23.999998" height="24.000000" fill="#FFFFFF" fill-opacity="0"/>
	<g clip-path="url(#clip351_638)">
		<path id="Vector" d="M12 23.54C5.62 23.54 0.45 18.37 0.45 12C0.45 5.62 5.62 0.44 12 0.44C18.37 0.44 23.55 5.62 23.55 12C23.55 18.37 18.37 23.54 12 23.54Z" stroke="#FFFFFF" stroke-opacity="1.000000" stroke-width="1.000000"/>
		<path id="Vector" d="M16.52 6.77C16.29 6.54 15.91 6.54 15.67 6.77L11.86 10.59L8.04 6.77C7.81 6.54 7.43 6.54 7.2 6.77L6.77 7.2C6.54 7.43 6.54 7.81 6.77 8.04L10.59 11.86L6.77 15.67C6.54 15.91 6.54 16.29 6.77 16.52L7.2 16.95C7.43 17.18 7.81 17.18 8.04 16.95L11.86 13.13L15.67 16.95C15.91 17.18 16.29 17.18 16.52 16.95L16.95 16.52C17.18 16.29 17.18 15.91 16.95 15.67L13.13 11.86L16.95 8.04C17.18 7.81 17.18 7.43 16.95 7.2L16.52 6.77Z" fill="#FFFFFF" fill-opacity="1.000000" fill-rule="evenodd"/>
	</g>
</svg>
