
<svg width="80" height="80" viewBox="0 0 80 80" fill="none" xmlns="http://www.w3.org/2000/svg">
<circle cx="40" cy="40" r="38.5" stroke="#1D1D1B" stroke-width="3"/>
<path fill-rule="evenodd" clip-rule="evenodd" d="M55.0929 22.5858C54.3119 21.8047 53.0455 21.8047 52.2645 22.5858L39.5465 35.3038L26.8284 22.5858C26.0474 21.8048 24.7811 21.8048 24 22.5858L22.5858 24C21.8047 24.7811 21.8047 26.0474 22.5858 26.8284L35.3038 39.5465L22.5858 52.2645C21.8047 53.0455 21.8047 54.3119 22.5858 55.0929L24 56.5071C24.781 57.2882 26.0474 57.2882 26.8284 56.5071L39.5465 43.7891L52.2645 56.5071C53.0455 57.2882 54.3119 57.2882 55.0929 56.5071L56.5071 55.0929C57.2882 54.3119 57.2882 53.0456 56.5071 52.2645L43.7891 39.5465L56.5071 26.8284C57.2882 26.0474 57.2882 24.781 56.5071 24L55.0929 22.5858Z" fill="#E65750"/>
</svg>
