<svg width="25.000000" height="25.000000" viewBox="0 0 25 25" fill="none" xmlns="http://www.w3.org/2000/svg" xmlns:xlink="http://www.w3.org/1999/xlink">
	<desc>
			Created with Pixso.
	</desc>
	<defs>
		<clipPath id="clip371_15">
			<rect id="logout" width="15.000000" height="16.000000" transform="translate(5.000000 4.500000)" fill="white" fill-opacity="0"/>
		</clipPath>
		<clipPath id="clip371_16">
			<rect id="фрейм 150" rx="3.000000" width="25.000000" height="25.000000" fill="white" fill-opacity="0"/>
		</clipPath>
	</defs>
	<rect id="фрейм 150" rx="3.000000" width="25.000000" height="25.000000" fill="#CEDAF9" fill-opacity="0.280000"/>
	<g clip-path="url(#clip371_16)">
		<rect id="logout" width="15.000000" height="16.000000" transform="translate(5.000000 4.500000)" fill="#FFFFFF" fill-opacity="0"/>
		<g clip-path="url(#clip371_15)">
			<path id="矢量 184" d="M15.62 9.16L14.74 10.1L16.35 11.83L10 11.83L10 13.16L16.35 13.16L14.74 14.88L15.62 15.83L18.75 12.5L15.62 9.16ZM7.5 7.83L12.5 7.83L12.5 6.5L7.5 6.5C6.81 6.5 6.25 7.1 6.25 7.83L6.25 17.16C6.25 17.9 6.81 18.5 7.5 18.5L12.5 18.5L12.5 17.16L7.5 17.16L7.5 7.83Z" fill="#0F2548" fill-opacity="1.000000" fill-rule="evenodd"/>
		</g>
	</g>
</svg>
