<svg width="24.000000" height="24.000000" viewBox="0 0 24 24" fill="none" xmlns="http://www.w3.org/2000/svg" xmlns:xlink="http://www.w3.org/1999/xlink">
	<desc>
		Created with Pixso.
	</desc>
	<defs/>
	<g style="mix-blend-mode:normal">
		<path id="icon" d="M23 12.5C21.27 16.89 17 20 12 20C7 20 2.72 16.89 1 12.5C2.72 8.1 7 5 12 5C17 5 21.27 8.1 23 12.5ZM15 12.5C15 14.15 13.65 15.5 12 15.5C10.34 15.5 9 14.15 9 12.5C9 10.84 10.34 9.5 12 9.5C13.65 9.5 15 10.84 15 12.5ZM12 18C8.23 18 4.83 15.86 3.17 12.5C4.83 9.14 8.23 7 12 7C15.76 7 19.17 9.14 20.82 12.5C19.17 15.86 15.76 18 12 18Z" fill="#0F2548" fill-opacity="1.000000" fill-rule="evenodd"/>
	</g>
</svg>
