<svg width="24.000000" height="24.000000" viewBox="0 0 24 24" fill="none" xmlns="http://www.w3.org/2000/svg" xmlns:xlink="http://www.w3.org/1999/xlink">
	<desc>
			Created with Pixso.
	</desc>
	<defs/>
	<g style="mix-blend-mode:normal">
		<path id="icon" d="M19.64 19.16L3.63 3.14C3.43 2.95 3.12 2.95 2.92 3.14L2.35 3.71L2.35 3.71C2.15 3.9 2.15 4.22 2.35 4.41L4.19 6.25C2.78 7.48 1.69 9.03 1 10.79C2.72 15.18 7 18.29 12 18.29C13.28 18.29 14.5 18.09 15.65 17.71L18.37 20.43L18.37 20.44C18.57 20.63 18.88 20.63 19.08 20.43L19.64 19.86C19.84 19.67 19.84 19.35 19.64 19.16ZM14.83 11.79C14.94 11.48 15 11.14 15 10.79C15 9.13 13.65 7.79 12 7.79C11.65 7.79 11.31 7.85 11 7.96L14.83 11.79ZM23 10.79C22.18 12.87 20.79 14.67 19 15.98L17.58 14.55C18.94 13.61 20.06 12.33 20.82 10.79C19.17 7.43 15.76 5.29 12 5.29C10.91 5.29 9.83 5.47 8.83 5.79L7.29 4.26C8.73 3.64 10.33 3.29 12 3.29C17 3.29 21.27 6.4 23 10.79ZM12 16.29C8.23 16.29 4.83 14.15 3.17 10.79C3.77 9.57 4.6 8.51 5.59 7.66L9 11.07C9.14 12.5 10.29 13.64 11.72 13.79L14 16.08C13.37 16.22 12.69 16.29 12 16.29Z" fill="#0F2548" fill-opacity="0.980000" fill-rule="evenodd"/>
	</g>
</svg>
