<svg width="20.001320" height="20.000000" viewBox="0 0 20.0013 20" fill="none" xmlns="http://www.w3.org/2000/svg" xmlns:xlink="http://www.w3.org/1999/xlink">
	<desc>
			Created with Pixso.
	</desc>
	<defs/>
	<path id="矢量 122" d="M0.31 2.07C0.43 2.23 7.48 11.23 7.48 11.23L7.48 18.75C7.48 19.43 8.05 20 8.75 20L11.26 20C11.95 20 12.52 19.43 12.52 18.75L12.52 11.22C12.52 11.22 19.38 2.45 19.71 2.04C20.03 1.64 20 1.25 20 1.25C20 0.56 19.43 0 18.73 0L1.26 0C0.5 0 0 0.6 0 1.25C0 1.5 0.07 1.79 0.31 2.07Z" fill="#0F2548" fill-opacity="1.000000" fill-rule="evenodd"/>
</svg>
