<svg width="11.698502" height="11.698486" viewBox="0 0 11.6985 11.6985" fill="none" xmlns="http://www.w3.org/2000/svg" xmlns:xlink="http://www.w3.org/1999/xlink">
	<desc>
			Created with Pixso.
	</desc>
	<defs/>
	<path id="Vector" d="M11.69 10.39L8.35 7.05C8.97 6.1 9.21 4.97 9.04 3.85C8.87 2.74 8.29 1.73 7.42 1.02C6.55 0.31 5.44 -0.06 4.31 0C3.19 0.06 2.12 0.53 1.33 1.33C0.53 2.12 0.06 3.19 0 4.31C-0.06 5.44 0.31 6.55 1.02 7.42C1.73 8.29 2.74 8.87 3.85 9.04C4.97 9.21 6.1 8.97 7.05 8.35L10.39 11.69L11.69 10.39ZM1.62 4.54C1.62 3.96 1.79 3.4 2.11 2.92C2.43 2.44 2.89 2.06 3.42 1.84C3.96 1.62 4.55 1.56 5.11 1.67C5.68 1.79 6.2 2.07 6.61 2.48C7.02 2.88 7.3 3.41 7.41 3.97C7.53 4.54 7.47 5.13 7.25 5.66C7.02 6.2 6.65 6.65 6.17 6.98C5.69 7.3 5.12 7.47 4.54 7.47C3.77 7.47 3.02 7.16 2.48 6.61C1.93 6.06 1.62 5.32 1.62 4.54Z" fill="#FFFFFF" fill-opacity="1.000000" fill-rule="nonzero"/>
</svg>
