<svg width="250.000000" height="71.713135" viewBox="0 0 250 71.7131" fill="none" xmlns="http://www.w3.org/2000/svg" xmlns:xlink="http://www.w3.org/1999/xlink">
	<desc>
		Created with Pixso.
	</desc>
	<defs/>
	<path id="Форма 1" d="M83.75 14.07C83.75 15.28 83.4 16.21 82.7 16.84C82 17.47 80.99 17.79 79.68 17.79L78.39 17.79L78.39 22.25L76.21 22.25L76.21 10.5L79.38 10.5C82.29 10.5 83.75 11.69 83.75 14.07ZM81.55 14.13C81.55 12.94 80.73 12.34 79.09 12.34L78.39 12.34L78.39 15.96L79.16 15.96C80.76 15.96 81.55 15.35 81.55 14.13Z" fill="#D22027" fill-opacity="1.000000" fill-rule="nonzero"/>
	<path id="Форма 1" d="M92.16 12.42L87.89 12.42L87.89 15.1L92 15.1L92 17.02L87.89 17.02L87.89 20.33L92.15 20.33L92.15 22.25L85.7 22.25L85.7 10.5L92.16 10.5L92.16 12.42Z" fill="#D22027" fill-opacity="1.000000" fill-rule="nonzero"/>
	<path id="Форма 1" d="M103.08 21.83C102.1 22.3 101.15 22.53 100.24 22.53C98.4 22.53 96.9 21.96 95.74 20.81C94.59 19.66 94.01 18.18 94.01 16.38C94.01 14.6 94.62 13.13 95.84 11.95C97.04 10.8 98.51 10.22 100.25 10.22C101.3 10.22 102.23 10.46 103.07 10.92L103.07 13.54C102.31 12.72 101.34 12.31 100.17 12.31C99.06 12.31 98.13 12.68 97.39 13.42C96.63 14.18 96.25 15.17 96.25 16.38C96.25 17.61 96.63 18.6 97.39 19.35C98.11 20.08 99.04 20.44 100.17 20.44C101.28 20.44 102.25 20.03 103.08 19.21L103.08 21.83Z" fill="#D22027" fill-opacity="1.000000" fill-rule="nonzero"/>
	<path id="Форма 1" d="M114.95 10.5L109.34 22.25L106.95 22.25L108.72 18.67L104.39 10.5L106.98 10.5L109.9 16.32L112.53 10.5L114.95 10.5Z" fill="#D22027" fill-opacity="1.000000" fill-rule="nonzero"/>
	<path id="Форма 1" d="M123.87 14.07C123.87 15.28 123.52 16.21 122.82 16.84C122.12 17.47 121.12 17.79 119.8 17.79L118.51 17.79L118.51 22.25L116.33 22.25L116.33 10.5L119.5 10.5C122.41 10.5 123.87 11.69 123.87 14.07ZM121.68 14.13C121.68 12.94 120.85 12.34 119.21 12.34L118.51 12.34L118.51 15.96L119.29 15.96C120.88 15.96 121.68 15.35 121.68 14.13Z" fill="#D22027" fill-opacity="1.000000" fill-rule="nonzero"/>
	<path id="Форма 1" d="M134.34 21.83C133.36 22.3 132.41 22.53 131.5 22.53C129.66 22.53 128.16 21.96 127 20.81C125.84 19.66 125.27 18.18 125.27 16.38C125.27 14.6 125.88 13.13 127.1 11.95C128.3 10.8 129.77 10.22 131.51 10.22C132.56 10.22 133.49 10.46 134.33 10.92L134.33 13.54C133.57 12.72 132.6 12.31 131.43 12.31C130.32 12.31 129.39 12.68 128.65 13.42C127.89 14.18 127.51 15.17 127.51 16.38C127.51 17.61 127.89 18.6 128.65 19.35C129.37 20.08 130.3 20.44 131.43 20.44C132.54 20.44 133.51 20.03 134.34 19.21L134.34 21.83Z" fill="#D22027" fill-opacity="1.000000" fill-rule="nonzero"/>
	<path id="Форма 1" d="M99.6 51.18L95.74 51.18L93.72 37.13L87.41 51.18L81.1 37.13L79.09 51.18L75.22 51.18L78.54 30.21L81.85 30.21L87.41 43.39L92.92 30.21L96.3 30.21L99.6 51.18Z" fill="#2056AE" fill-opacity="1.000000" fill-rule="nonzero"/>
	<path id="Форма 1" d="M145.04 51.18L139.92 51.18L131.87 40.94L131.87 51.18L127.97 51.18L127.97 30.21L131.87 30.21L131.87 39.5L139.69 30.21L144.62 30.21L135.75 40.11L145.04 51.18Z" fill="#2056AE" fill-opacity="1.000000" fill-rule="nonzero"/>
	<path id="Форма 1" d="M154.46 43.77L147.55 43.77L147.55 40.75L154.46 40.75L154.46 43.77Z" fill="#2056AE" fill-opacity="1.000000" fill-rule="nonzero"/>
	<path id="Форма 1" d="M176.04 30.21L166.02 51.18L161.74 51.18L164.92 44.78L157.18 30.21L161.8 30.21L167.02 40.58L171.72 30.21L176.04 30.21Z" fill="#2056AE" fill-opacity="1.000000" fill-rule="nonzero"/>
	<path id="Форма 1" d="M189.34 33.63L182.43 33.63L182.43 51.18L178.53 51.18L178.53 30.21L189.34 30.21L189.34 33.63Z" fill="#2056AE" fill-opacity="1.000000" fill-rule="nonzero"/>
	<path id="Форма 1" d="M212.67 40.69C212.67 43.75 211.59 46.35 209.42 48.49C207.25 50.62 204.6 51.68 201.48 51.68C198.36 51.68 195.71 50.62 193.53 48.49C191.36 46.35 190.27 43.75 190.27 40.69C190.27 37.63 191.36 35.04 193.53 32.91C195.71 30.77 198.36 29.7 201.48 29.7C204.6 29.7 207.25 30.77 209.42 32.91C211.59 35.04 212.67 37.63 212.67 40.69ZM208.69 40.69C208.69 38.65 208 36.94 206.61 35.54C205.23 34.15 203.51 33.45 201.48 33.45C199.46 33.45 197.76 34.15 196.36 35.56C194.98 36.95 194.28 38.66 194.28 40.69C194.28 42.72 194.98 44.43 196.36 45.83C197.76 47.22 199.46 47.92 201.48 47.92C203.51 47.92 205.23 47.22 206.61 45.83C208 44.43 208.69 42.72 208.69 40.69Z" fill="#2056AE" fill-opacity="1.000000" fill-rule="nonzero"/>
	<path id="Форма 1" d="M231.05 51.18L227.15 51.18L227.15 33.66L221.02 33.66L221.02 44.25C221.02 46.58 220.73 48.27 220.15 49.32C219.39 50.7 218 51.39 215.98 51.39C215.32 51.39 214.62 51.3 213.9 51.12L214.27 47.59C214.77 47.77 215.19 47.86 215.54 47.86C216.17 47.86 216.6 47.63 216.83 47.17C217.09 46.64 217.22 45.6 217.22 44.06L217.22 30.21L231.05 30.21L231.05 51.18Z" fill="#2056AE" fill-opacity="1.000000" fill-rule="nonzero"/>
	<path id="Форма 1" d="M249.6 44.75C249.6 47.04 248.74 48.75 247.01 49.86C245.66 50.74 243.97 51.18 241.95 51.18L235.75 51.18L235.75 30.21L239.65 30.21L239.65 38.33L241.95 38.33C243.96 38.33 245.66 38.78 247.03 39.67C248.74 40.8 249.6 42.5 249.6 44.75ZM245.7 44.75C245.7 42.6 244.36 41.52 241.66 41.52L239.65 41.52L239.65 47.94L241.66 47.94C243.04 47.94 244.05 47.71 244.68 47.25C245.36 46.75 245.7 45.91 245.7 44.75Z" fill="#2056AE" fill-opacity="1.000000" fill-rule="nonzero"/>
	<path id="Форма 1" d="M126.15 51.18L122.29 51.18L120.27 37.13L113.96 51.18L107.65 37.13L105.64 51.18L101.77 51.18L105.09 30.21L108.4 30.21L113.96 43.39L119.46 30.21L122.84 30.21L126.15 51.18Z" fill="#2056AE" fill-opacity="1.000000" fill-rule="nonzero"/>
	<path id="Форма 1" d="M0 50.06L13.27 0L31.52 16.68L49.77 0L62.5 50.06L56.96 50.06L46.46 10.57L31.52 24.47L16.59 10.57L6.08 50.06L0 50.06Z" fill="#2056AE" fill-opacity="1.000000" fill-rule="evenodd"/>
	<path id="Форма 1" d="M8.84 50.06L17.69 15.02L31.7 27.26L44.8 15.02L53.65 50.06L47.56 50.06L42.03 25.03L31.7 34.49L21.01 25.03L15.04 50.06L8.84 50.06Z" fill="#2056AE" fill-opacity="1.000000" fill-rule="evenodd"/>
	<path id="Форма 1" d="M22.12 29.48L18.25 50.06L24.33 50.06L30.97 44.5L36.5 50.06L44.24 50.06L34.84 41.16L42.03 34.49L40.92 29.48L25.99 42.28L27.65 34.49L22.12 29.48Z" fill="#2056AE" fill-opacity="1.000000" fill-rule="evenodd"/>
	<path id="Форма 1" d="M7.42 66.32C7.42 68.01 6.94 69.35 5.99 70.33C5.1 71.25 3.95 71.71 2.54 71.71C1.63 71.71 0.79 71.47 0 71.01L0 69.04C0.7 69.72 1.53 70.05 2.49 70.05C3.4 70.05 4.13 69.77 4.68 69.21C5.22 68.67 5.51 67.92 5.56 66.99L1.63 66.99L1.63 65.47L5.51 65.47C5.39 64.64 5.06 63.97 4.51 63.47C3.97 62.98 3.31 62.74 2.53 62.74C1.51 62.74 0.67 63.07 0.01 63.72L0.01 61.78C0.76 61.32 1.66 61.09 2.7 61.09C4.09 61.09 5.22 61.57 6.1 62.54C6.98 63.5 7.42 64.76 7.42 66.32Z" fill="#D22027" fill-opacity="1.000000" fill-rule="nonzero"/>
	<path id="Форма 1" d="M15.99 71.47L14.18 71.47L14.18 63L11.33 63L11.33 68.12C11.33 69.24 11.2 70.06 10.93 70.57C10.58 71.24 9.93 71.57 8.99 71.57C8.69 71.57 8.36 71.53 8.03 71.44L8.2 69.73C8.43 69.82 8.63 69.86 8.79 69.86C9.08 69.86 9.28 69.75 9.39 69.53C9.51 69.27 9.57 68.77 9.57 68.03L9.57 61.33L15.99 61.33L15.99 71.47Z" fill="#D22027" fill-opacity="1.000000" fill-rule="nonzero"/>
	<path id="Форма 1" d="M23.53 62.98L19.99 62.98L19.99 65.29L23.39 65.29L23.39 66.95L19.99 66.95L19.99 69.81L23.52 69.81L23.52 71.47L18.18 71.47L18.18 61.33L23.53 61.33L23.53 62.98Z" fill="#D22027" fill-opacity="1.000000" fill-rule="nonzero"/>
	<path id="Форма 1" d="M33.45 71.47L31.08 71.47L27.34 66.52L27.34 71.47L25.53 71.47L25.53 61.33L27.34 61.33L27.34 65.82L30.97 61.33L33.26 61.33L29.14 66.12L33.45 71.47Z" fill="#D22027" fill-opacity="1.000000" fill-rule="nonzero"/>
	<path id="Форма 1" d="M40.2 62.98L37.94 62.98L37.94 71.47L36.14 71.47L36.14 62.98L33.89 62.98L33.89 61.33L40.2 61.33L40.2 62.98Z" fill="#D22027" fill-opacity="1.000000" fill-rule="nonzero"/>
	<path id="Форма 1" d="M47.86 64.41C47.86 65.45 47.57 66.25 46.99 66.8C46.41 67.35 45.58 67.62 44.48 67.62L43.42 67.62L43.42 71.47L41.61 71.47L41.61 61.33L44.24 61.33C46.65 61.33 47.86 62.36 47.86 64.41ZM46.04 64.46C46.04 63.43 45.36 62.91 44 62.91L43.42 62.91L43.42 66.04L44.06 66.04C45.38 66.04 46.04 65.51 46.04 64.46Z" fill="#D22027" fill-opacity="1.000000" fill-rule="nonzero"/>
	<path id="Форма 1" d="M59.41 66.4C59.41 67.88 58.91 69.13 57.9 70.17C56.89 71.19 55.66 71.71 54.21 71.71C52.76 71.71 51.53 71.19 50.52 70.17C49.51 69.13 49.01 67.88 49.01 66.4C49.01 64.92 49.51 63.66 50.52 62.64C51.53 61.6 52.76 61.09 54.21 61.09C55.66 61.09 56.89 61.6 57.9 62.64C58.91 63.66 59.41 64.92 59.41 66.4ZM57.56 66.4C57.56 65.41 57.24 64.58 56.6 63.91C55.95 63.24 55.16 62.9 54.21 62.9C53.28 62.9 52.48 63.24 51.83 63.92C51.19 64.59 50.87 65.42 50.87 66.4C50.87 67.38 51.19 68.21 51.83 68.88C52.48 69.55 53.28 69.89 54.21 69.89C55.16 69.89 55.95 69.55 56.6 68.88C57.24 68.21 57.56 67.38 57.56 66.4Z" fill="#D22027" fill-opacity="1.000000" fill-rule="nonzero"/>
	<path id="Форма 1" d="M68.88 71.47L67.07 71.47L67.07 66.94L62.91 66.94L62.91 71.47L61.1 71.47L61.1 61.33L62.91 61.33L62.91 65.32L67.07 65.32L67.07 61.33L68.88 61.33L68.88 71.47Z" fill="#D22027" fill-opacity="1.000000" fill-rule="nonzero"/>
	<path id="Форма 1" d="M78.83 71.47L77.02 71.47L77.02 66.94L72.86 66.94L72.86 71.47L71.04 71.47L71.04 61.33L72.86 61.33L72.86 65.32L77.02 65.32L77.02 61.33L78.83 61.33L78.83 71.47Z" fill="#D22027" fill-opacity="1.000000" fill-rule="nonzero"/>
	<path id="Форма 1" d="M89.73 71.47L87.92 71.47L87.92 61.33L89.73 61.33L89.73 71.47ZM87.33 68.36C87.33 69.47 86.92 70.29 86.12 70.83C85.49 71.25 84.7 71.47 83.76 71.47L81 71.47L81 61.33L82.82 61.33L82.82 65.26L83.76 65.26C84.7 65.26 85.48 65.47 86.12 65.91C86.92 66.45 87.33 67.27 87.33 68.36ZM85.51 68.36C85.51 67.32 84.89 66.8 83.65 66.8L82.82 66.8L82.82 69.9L83.65 69.9C84.29 69.9 84.75 69.79 85.04 69.57C85.36 69.32 85.51 68.92 85.51 68.36Z" fill="#D22027" fill-opacity="1.000000" fill-rule="nonzero"/>
	<path id="Форма 1" d="M98.38 58.36C98.38 59.02 98.15 59.59 97.69 60.06C97.23 60.53 96.67 60.77 96.01 60.77C95.36 60.77 94.8 60.53 94.34 60.06C93.89 59.6 93.67 59.03 93.67 58.36L95 58.36C95 58.69 95.09 58.96 95.28 59.18C95.47 59.39 95.71 59.5 96.01 59.5C96.32 59.5 96.56 59.39 96.75 59.18C96.94 58.96 97.04 58.69 97.04 58.36L98.38 58.36ZM100.13 71.47L98.31 71.47L98.31 64.17L93.72 71.47L91.9 71.47L91.9 61.33L93.72 61.33L93.72 68.59L98.31 61.33L100.13 61.33L100.13 71.47Z" fill="#D22027" fill-opacity="1.000000" fill-rule="nonzero"/>
	<path id="Форма 1" d="M114.55 71.47L112.74 71.47L112.74 62.98L108.63 62.98L108.63 71.47L106.82 71.47L106.82 61.33L114.55 61.33L114.55 71.47Z" fill="#D22027" fill-opacity="1.000000" fill-rule="nonzero"/>
	<path id="Форма 1" d="M126.64 66.4C126.64 67.88 126.14 69.13 125.13 70.17C124.12 71.19 122.89 71.71 121.44 71.71C119.99 71.71 118.76 71.19 117.75 70.17C116.74 69.13 116.24 67.88 116.24 66.4C116.24 64.92 116.74 63.66 117.75 62.64C118.76 61.6 119.99 61.09 121.44 61.09C122.89 61.09 124.12 61.6 125.13 62.64C126.14 63.66 126.64 64.92 126.64 66.4ZM124.79 66.4C124.79 65.41 124.47 64.58 123.83 63.91C123.18 63.24 122.39 62.9 121.44 62.9C120.51 62.9 119.71 63.24 119.07 63.92C118.42 64.59 118.1 65.42 118.1 66.4C118.1 67.38 118.42 68.21 119.07 68.88C119.71 69.55 120.51 69.89 121.44 69.89C122.39 69.89 123.18 69.55 123.83 68.88C124.47 68.21 124.79 67.38 124.79 66.4Z" fill="#D22027" fill-opacity="1.000000" fill-rule="nonzero"/>
	<path id="Форма 1" d="M134.58 64.41C134.58 65.45 134.29 66.25 133.71 66.8C133.13 67.35 132.3 67.62 131.21 67.62L130.14 67.62L130.14 71.47L128.33 71.47L128.33 61.33L130.96 61.33C133.38 61.33 134.58 62.36 134.58 64.41ZM132.76 64.46C132.76 63.43 132.08 62.91 130.72 62.91L130.14 62.91L130.14 66.04L130.78 66.04C132.1 66.04 132.76 65.51 132.76 64.46Z" fill="#D22027" fill-opacity="1.000000" fill-rule="nonzero"/>
	<path id="Форма 1" d="M141.77 62.98L139.52 62.98L139.52 71.47L137.71 71.47L137.71 62.98L135.46 62.98L135.46 61.33L141.77 61.33L141.77 62.98Z" fill="#D22027" fill-opacity="1.000000" fill-rule="nonzero"/>
	<path id="Форма 1" d="M151.44 71.47L149.54 71.47L148.7 69.18L144.54 69.18L143.71 71.47L141.81 71.47L145.66 61.33L147.58 61.33L151.44 71.47ZM148.12 67.61L146.62 63.52L145.12 67.61L148.12 67.61Z" fill="#D22027" fill-opacity="1.000000" fill-rule="nonzero"/>
	<path id="Форма 1" d="M159.7 71.47L157.89 71.47L157.89 63L155.04 63L155.04 68.12C155.04 69.24 154.91 70.06 154.64 70.57C154.28 71.24 153.64 71.57 152.7 71.57C152.39 71.57 152.07 71.53 151.73 71.44L151.9 69.73C152.14 69.82 152.33 69.86 152.49 69.86C152.78 69.86 152.99 69.75 153.09 69.53C153.22 69.27 153.28 68.77 153.28 68.03L153.28 61.33L159.7 61.33L159.7 71.47Z" fill="#D22027" fill-opacity="1.000000" fill-rule="nonzero"/>
	<path id="Форма 1" d="M174.15 71.47L172.34 71.47L172.34 62.98L168.23 62.98L168.23 71.47L166.42 71.47L166.42 61.33L174.15 61.33L174.15 71.47Z" fill="#D22027" fill-opacity="1.000000" fill-rule="nonzero"/>
	<path id="Форма 1" d="M182.57 64.41C182.57 65.45 182.28 66.25 181.7 66.8C181.12 67.35 180.29 67.62 179.2 67.62L178.13 67.62L178.13 71.47L176.32 71.47L176.32 61.33L178.95 61.33C181.36 61.33 182.57 62.36 182.57 64.41ZM180.75 64.46C180.75 63.43 180.07 62.91 178.71 62.91L178.13 62.91L178.13 66.04L178.77 66.04C180.09 66.04 180.75 65.51 180.75 64.46Z" fill="#D22027" fill-opacity="1.000000" fill-rule="nonzero"/>
	<path id="Форма 1" d="M194.12 66.4C194.12 67.88 193.62 69.13 192.61 70.17C191.6 71.19 190.37 71.71 188.92 71.71C187.47 71.71 186.24 71.19 185.23 70.17C184.22 69.13 183.72 67.88 183.72 66.4C183.72 64.92 184.22 63.66 185.23 62.64C186.24 61.6 187.47 61.09 188.92 61.09C190.37 61.09 191.6 61.6 192.61 62.64C193.62 63.66 194.12 64.92 194.12 66.4ZM192.27 66.4C192.27 65.41 191.95 64.58 191.31 63.91C190.66 63.24 189.87 62.9 188.92 62.9C187.99 62.9 187.19 63.24 186.55 63.92C185.9 64.59 185.58 65.42 185.58 66.4C185.58 67.38 185.9 68.21 186.55 68.88C187.19 69.55 187.99 69.89 188.92 69.89C189.87 69.89 190.66 69.55 191.31 68.88C191.95 68.21 192.27 67.38 192.27 66.4Z" fill="#D22027" fill-opacity="1.000000" fill-rule="nonzero"/>
	<path id="Форма 1" d="M203.54 71.47L201.73 71.47L201.73 62.98L197.62 62.98L197.62 71.47L195.81 71.47L195.81 61.33L203.54 61.33L203.54 71.47Z" fill="#D22027" fill-opacity="1.000000" fill-rule="nonzero"/>
	<path id="Форма 1" d="M213.6 61.33L208.94 71.47L206.95 71.47L208.43 68.37L204.83 61.33L206.98 61.33L209.41 66.35L211.59 61.33L213.6 61.33Z" fill="#D22027" fill-opacity="1.000000" fill-rule="nonzero"/>
	<path id="Форма 1" d="M221.37 71.1C220.56 71.51 219.77 71.71 219.01 71.71C217.49 71.71 216.24 71.21 215.28 70.22C214.33 69.23 213.85 67.96 213.85 66.4C213.85 64.87 214.35 63.59 215.37 62.58C216.36 61.58 217.58 61.09 219.03 61.09C219.89 61.09 220.67 61.29 221.36 61.69L221.36 63.95C220.73 63.24 219.93 62.89 218.96 62.89C218.03 62.89 217.27 63.21 216.66 63.84C216.02 64.5 215.71 65.36 215.71 66.4C215.71 67.46 216.02 68.32 216.65 68.96C217.25 69.59 218.02 69.9 218.96 69.9C219.88 69.9 220.69 69.55 221.37 68.85L221.37 71.1Z" fill="#D22027" fill-opacity="1.000000" fill-rule="nonzero"/>
	<path id="Форма 1" d="M231.26 71.47L228.88 71.47L225.14 66.52L225.14 71.47L223.33 71.47L223.33 61.33L225.14 61.33L225.14 65.82L228.77 61.33L231.06 61.33L226.94 66.12L231.26 71.47Z" fill="#D22027" fill-opacity="1.000000" fill-rule="nonzero"/>
	<path id="Форма 1" d="M241.89 66.4C241.89 67.88 241.38 69.13 240.37 70.17C239.37 71.19 238.14 71.71 236.69 71.71C235.24 71.71 234 71.19 232.99 70.17C231.99 69.13 231.48 67.88 231.48 66.4C231.48 64.92 231.99 63.66 232.99 62.64C234 61.6 235.24 61.09 236.69 61.09C238.14 61.09 239.37 61.6 240.37 62.64C241.38 63.66 241.89 64.92 241.89 66.4ZM240.04 66.4C240.04 65.41 239.71 64.58 239.07 63.91C238.43 63.24 237.63 62.9 236.69 62.9C235.75 62.9 234.96 63.24 234.31 63.92C233.67 64.59 233.34 65.42 233.34 66.4C233.34 67.38 233.67 68.21 234.31 68.88C234.96 69.55 235.75 69.89 236.69 69.89C237.63 69.89 238.43 69.55 239.07 68.88C239.71 68.21 240.04 67.38 240.04 66.4Z" fill="#D22027" fill-opacity="1.000000" fill-rule="nonzero"/>
	<path id="Форма 1" d="M250 68.58C250 69.5 249.69 70.22 249.08 70.72C248.47 71.22 247.61 71.47 246.49 71.47L243.57 71.47L243.57 61.33L246.13 61.33C247.14 61.33 247.91 61.57 248.45 62.05C248.96 62.51 249.22 63.18 249.22 64.05C249.22 64.46 249.11 64.85 248.89 65.2C248.67 65.54 248.39 65.8 248.03 65.99C248.62 66.14 249.09 66.47 249.46 66.97C249.82 67.45 250 67.99 250 68.58ZM247.49 64.22C247.49 63.31 246.93 62.86 245.79 62.86L245.39 62.86L245.39 65.55L245.91 65.55C246.4 65.55 246.78 65.44 247.07 65.21C247.35 64.98 247.49 64.65 247.49 64.22ZM248.18 68.48C248.18 67.49 247.52 66.99 246.21 66.99L245.39 66.99L245.39 69.94L246.21 69.94C247.52 69.94 248.18 69.45 248.18 68.48Z" fill="#D22027" fill-opacity="1.000000" fill-rule="nonzero"/>
</svg>
