<svg width="34.000000" height="34.000000" viewBox="0 0 34 34" fill="none" xmlns="http://www.w3.org/2000/svg" xmlns:xlink="http://www.w3.org/1999/xlink">
	<desc>
			Created with Pixso.
	</desc>
	<defs></defs>
	<rect id="xxl-36px" width="34.000000" height="34.000000" fill="#FFFFFF" fill-opacity="0"></rect>
	<path id="Shape" d="M17.4365 3.48877L30.376 12.4468C30.6348 12.6489 30.7939 12.9526 30.8125 13.2803L30.8125 30.2803C30.8125 30.5737 30.5742 30.8115 30.2812 30.8115L22.8438 30.8115C22.5508 30.8115 22.3125 30.5737 22.3125 30.2803L22.3125 27.624L11.6875 27.624L11.6875 30.2803C11.6875 30.5737 11.4492 30.8115 11.1562 30.8115L3.71875 30.8115C3.42578 30.8115 3.1875 30.5737 3.1875 30.2803L3.1875 13.2803C3.20605 12.9526 3.36523 12.6489 3.62402 12.4468L16.5635 3.48877C16.8311 3.32275 17.1689 3.32275 17.4365 3.48877ZM11.6875 18.0625L22.3125 18.0625L22.3125 15.4062C22.3125 15.1128 22.0742 14.875 21.7812 14.875L12.2188 14.875C11.9258 14.875 11.6875 15.1128 11.6875 15.4062L11.6875 18.0625ZM22.3125 24.4375L11.6875 24.4375L11.6875 21.25L22.3125 21.25L22.3125 24.4375Z" clip-rule="evenodd" fill="#FFFFFF" fill-opacity="1.000000" fill-rule="evenodd"></path>
</svg>