<svg width="18.000000" height="20.000000" viewBox="0 0 18 20" fill="none" xmlns="http://www.w3.org/2000/svg" xmlns:xlink="http://www.w3.org/1999/xlink">
	<desc>
			Created with Pixso.
	</desc>
	<defs/>
	<path id="矢量 67" d="M17 20L1 20C0.73 20 0.48 19.89 0.29 19.7C0.1 19.51 0 19.26 0 19L0 1C0 0.73 0.1 0.48 0.29 0.29C0.48 0.1 0.73 0 1 0L17 0C17.26 0 17.51 0.1 17.7 0.29C17.89 0.48 18 0.73 18 1L18 19C18 19.26 17.89 19.51 17.7 19.7C17.51 19.89 17.26 20 17 20ZM16 18L16 2L2 2L2 18L16 18ZM5 5L13 5L13 7L5 7L5 5ZM5 9L13 9L13 11L5 11L5 9ZM5 13L13 13L13 15L5 15L5 13Z" fill="#FFFFFF" fill-opacity="1.000000" fill-rule="evenodd"/>
</svg>
