<svg width="34.000000" height="34.000000" viewBox="0 0 34 34" fill="none" xmlns="http://www.w3.org/2000/svg" xmlns:xlink="http://www.w3.org/1999/xlink">
	<desc>
			Created with Pixso.
	</desc>
	<defs>
		<clipPath id="clip313_194">
			<rect id="print2 1" width="34.000000" height="34.000000" fill="white" fill-opacity="0"></rect>
		</clipPath>
	</defs>
	<rect id="print2 1" width="34.000000" height="34.000000" fill="#FFFFFF" fill-opacity="0"></rect>
	<g clip-path="url(#clip313_194)">
		<path id="Vector" d="M23.83 12.21L9.76 12.21C9.49 12.21 9.24 12.11 9.05 11.92C8.87 11.74 8.76 11.48 8.76 11.22L8.76 4.18C8.76 3.91 8.87 3.66 9.05 3.47C9.24 3.29 9.49 3.18 9.76 3.18L23.83 3.18C24.1 3.18 24.35 3.29 24.54 3.47C24.73 3.66 24.83 3.91 24.83 4.18L24.83 11.22C24.83 11.48 24.73 11.74 24.54 11.92C24.35 12.11 24.1 12.21 23.83 12.21ZM10.75 10.22L22.84 10.22L22.84 5.17L10.75 5.17L10.75 10.22Z" fill="#FFFFFF" fill-opacity="1.000000" fill-rule="nonzero"></path>
		<path id="Vector" d="M23.83 29.88L9.76 29.88C9.49 29.88 9.24 29.77 9.05 29.59C8.87 29.4 8.76 29.15 8.76 28.88L8.76 18.06C8.76 17.8 8.87 17.55 9.05 17.36C9.24 17.17 9.49 17.07 9.76 17.07L23.83 17.07C24.1 17.07 24.35 17.17 24.54 17.36C24.73 17.55 24.83 17.8 24.83 18.06L24.83 28.88C24.83 29.15 24.73 29.4 24.54 29.59C24.35 29.77 24.1 29.88 23.83 29.88ZM10.75 27.89L22.84 27.89L22.84 19.06L10.75 19.06L10.75 27.89Z" fill="#FFFFFF" fill-opacity="1.000000" fill-rule="nonzero"></path>
		<path id="Vector" d="M27.04 25.16L23.83 25.16C23.57 25.16 23.32 25.06 23.13 24.87C22.94 24.68 22.84 24.43 22.84 24.17C22.84 23.9 22.94 23.65 23.13 23.46C23.32 23.28 23.57 23.17 23.83 23.17L27.04 23.17C27.37 23.17 27.69 23.04 27.92 22.8C28.16 22.57 28.29 22.25 28.29 21.92L28.29 13.47C28.29 13.14 28.16 12.82 27.92 12.58C27.69 12.35 27.37 12.21 27.04 12.21L6.55 12.21C6.22 12.21 5.9 12.35 5.67 12.58C5.43 12.82 5.3 13.14 5.3 13.47L5.3 21.92C5.3 22.25 5.43 22.57 5.67 22.8C5.9 23.04 6.22 23.17 6.55 23.17L9.76 23.17C10.02 23.17 10.27 23.28 10.46 23.46C10.65 23.65 10.75 23.9 10.75 24.17C10.75 24.43 10.65 24.68 10.46 24.87C10.27 25.06 10.02 25.16 9.76 25.16L6.55 25.16C5.69 25.16 4.87 24.82 4.26 24.21C3.65 23.6 3.31 22.78 3.31 21.92L3.31 13.47C3.31 12.61 3.65 11.78 4.26 11.17C4.87 10.56 5.69 10.22 6.55 10.22L27.04 10.22C27.9 10.22 28.72 10.56 29.33 11.17C29.94 11.78 30.28 12.61 30.29 13.47L30.29 21.92C30.28 22.78 29.94 23.6 29.33 24.21C28.72 24.82 27.9 25.16 27.04 25.16Z" fill="#FFFFFF" fill-opacity="1.000000" fill-rule="nonzero"></path>
		<path id="Vector" d="M8.69 15.67C8.66 15.67 8.63 15.67 8.6 15.66C8.56 15.66 8.53 15.65 8.5 15.65C8.47 15.64 8.43 15.63 8.4 15.62C8.38 15.61 8.34 15.6 8.31 15.59C8.28 15.58 8.25 15.56 8.23 15.55C8.2 15.53 8.17 15.52 8.14 15.5C8.11 15.48 8.09 15.46 8.06 15.44C8.04 15.42 8.01 15.4 7.99 15.37C7.97 15.35 7.94 15.33 7.92 15.3C7.9 15.28 7.88 15.25 7.87 15.22C7.85 15.2 7.83 15.17 7.82 15.14C7.8 15.11 7.79 15.08 7.77 15.05C7.76 15.02 7.75 14.99 7.74 14.96C7.73 14.93 7.72 14.89 7.72 14.86C7.71 14.84 7.7 14.8 7.7 14.77C7.7 14.7 7.7 14.64 7.7 14.57C7.7 14.54 7.71 14.5 7.72 14.47C7.72 14.44 7.73 14.41 7.74 14.38C7.75 14.35 7.76 14.32 7.77 14.29C7.79 14.26 7.8 14.23 7.82 14.2C7.83 14.17 7.85 14.14 7.87 14.11C7.88 14.09 7.9 14.06 7.92 14.04C7.94 14.01 7.97 13.99 7.99 13.96C8.01 13.94 8.04 13.92 8.06 13.9C8.09 13.88 8.11 13.86 8.14 13.84C8.17 13.82 8.2 13.8 8.23 13.79C8.25 13.77 8.28 13.76 8.31 13.75C8.34 13.73 8.37 13.72 8.4 13.71C8.44 13.7 8.47 13.7 8.5 13.69C8.53 13.68 8.57 13.68 8.6 13.68C8.66 13.67 8.73 13.67 8.79 13.68C8.82 13.68 8.86 13.68 8.89 13.69C8.92 13.7 8.95 13.7 8.98 13.71C9.01 13.72 9.05 13.73 9.08 13.75C9.11 13.76 9.13 13.77 9.16 13.79C9.19 13.8 9.22 13.82 9.25 13.84C9.27 13.86 9.3 13.88 9.33 13.9C9.35 13.92 9.37 13.94 9.4 13.96C9.42 13.99 9.44 14.01 9.46 14.04C9.49 14.06 9.5 14.09 9.52 14.11C9.54 14.14 9.56 14.17 9.57 14.2C9.59 14.23 9.6 14.26 9.61 14.29C9.63 14.32 9.64 14.35 9.65 14.38C9.66 14.41 9.66 14.44 9.67 14.47C9.68 14.5 9.68 14.54 9.69 14.57C9.69 14.64 9.69 14.7 9.69 14.77C9.68 14.8 9.68 14.83 9.67 14.86C9.67 14.89 9.66 14.93 9.65 14.96C9.64 14.99 9.63 15.02 9.61 15.05C9.6 15.08 9.59 15.11 9.57 15.14C9.56 15.17 9.54 15.2 9.52 15.22C9.5 15.25 9.49 15.28 9.46 15.3C9.45 15.33 9.42 15.35 9.4 15.37C9.37 15.4 9.35 15.42 9.33 15.44C9.3 15.46 9.27 15.48 9.25 15.5C9.22 15.52 9.19 15.53 9.16 15.55C9.13 15.56 9.11 15.58 9.08 15.59C9.05 15.6 9.01 15.61 8.98 15.62C8.95 15.63 8.92 15.64 8.89 15.65C8.86 15.65 8.82 15.66 8.79 15.66C8.76 15.67 8.73 15.67 8.69 15.67Z" fill="#FFFFFF" fill-opacity="1.000000" fill-rule="nonzero"></path>
		<path id="Vector" d="M11.62 15.67C11.58 15.67 11.55 15.67 11.52 15.66C11.49 15.66 11.45 15.65 11.42 15.65C11.39 15.64 11.36 15.63 11.33 15.62C11.3 15.61 11.26 15.6 11.23 15.59C11.21 15.58 11.17 15.56 11.15 15.55C11.12 15.53 11.09 15.52 11.06 15.5C11.04 15.48 11.01 15.46 10.98 15.44C10.96 15.42 10.93 15.4 10.91 15.37C10.89 15.35 10.87 15.33 10.84 15.3C10.82 15.28 10.81 15.25 10.79 15.22C10.77 15.2 10.75 15.17 10.74 15.14C10.72 15.11 10.71 15.08 10.7 15.05C10.68 15.02 10.67 14.99 10.66 14.96C10.65 14.93 10.65 14.89 10.64 14.86C10.63 14.84 10.63 14.8 10.62 14.77C10.62 14.7 10.62 14.64 10.62 14.57C10.63 14.54 10.63 14.5 10.64 14.47C10.64 14.44 10.65 14.41 10.66 14.38C10.67 14.35 10.68 14.32 10.7 14.29C10.71 14.26 10.72 14.23 10.74 14.2C10.75 14.17 10.77 14.14 10.79 14.11C10.81 14.09 10.82 14.06 10.84 14.04C10.87 14.01 10.89 13.99 10.91 13.96C10.93 13.94 10.96 13.92 10.98 13.9C11.01 13.88 11.04 13.86 11.06 13.84C11.09 13.82 11.12 13.8 11.15 13.79C11.17 13.77 11.21 13.76 11.23 13.75C11.26 13.73 11.3 13.72 11.33 13.71C11.36 13.7 11.39 13.7 11.42 13.69C11.45 13.68 11.49 13.68 11.52 13.68C11.58 13.67 11.65 13.67 11.72 13.68C11.75 13.68 11.78 13.68 11.81 13.69C11.84 13.7 11.88 13.7 11.91 13.71C11.94 13.72 11.97 13.73 12 13.75C12.03 13.76 12.06 13.77 12.09 13.79C12.12 13.8 12.14 13.82 12.17 13.84C12.2 13.86 12.22 13.88 12.25 13.9C12.28 13.92 12.3 13.94 12.32 13.96C12.35 13.99 12.37 14.01 12.39 14.04C12.41 14.06 12.43 14.09 12.45 14.11C12.47 14.14 12.48 14.17 12.5 14.2C12.51 14.23 12.53 14.26 12.54 14.29C12.55 14.32 12.56 14.35 12.57 14.38C12.58 14.41 12.59 14.44 12.6 14.47C12.6 14.5 12.61 14.54 12.61 14.57C12.62 14.64 12.62 14.7 12.61 14.77C12.61 14.8 12.6 14.83 12.6 14.86C12.59 14.89 12.58 14.93 12.57 14.96C12.56 14.99 12.55 15.02 12.54 15.05C12.53 15.08 12.51 15.11 12.5 15.14C12.48 15.17 12.47 15.2 12.45 15.22C12.43 15.25 12.41 15.28 12.39 15.3C12.37 15.33 12.35 15.35 12.32 15.37C12.3 15.4 12.28 15.42 12.25 15.44C12.22 15.46 12.2 15.48 12.17 15.5C12.15 15.52 12.12 15.53 12.09 15.55C12.06 15.56 12.03 15.58 12 15.59C11.97 15.6 11.94 15.61 11.91 15.62C11.88 15.63 11.84 15.64 11.81 15.65C11.79 15.65 11.75 15.66 11.72 15.66C11.69 15.67 11.65 15.67 11.62 15.67Z" fill="#FFFFFF" fill-opacity="1.000000" fill-rule="nonzero"></path>
		<path id="Vector" d="M20.71 22.84L12.88 22.84C12.61 22.84 12.36 22.73 12.17 22.55C11.99 22.36 11.88 22.11 11.88 21.84C11.88 21.58 11.99 21.33 12.17 21.14C12.36 20.95 12.61 20.85 12.88 20.85L20.71 20.85C20.98 20.85 21.23 20.95 21.42 21.14C21.61 21.33 21.71 21.58 21.71 21.84C21.71 22.11 21.61 22.36 21.42 22.55C21.23 22.73 20.98 22.84 20.71 22.84Z" fill="#FFFFFF" fill-opacity="1.000000" fill-rule="nonzero"></path>
		<path id="Vector" d="M20.71 26.36L12.88 26.36C12.61 26.36 12.36 26.25 12.17 26.07C11.99 25.88 11.88 25.63 11.88 25.36C11.88 25.1 11.99 24.84 12.17 24.66C12.36 24.47 12.61 24.37 12.88 24.37L20.71 24.37C20.98 24.37 21.23 24.47 21.42 24.66C21.61 24.84 21.71 25.1 21.71 25.36C21.71 25.63 21.61 25.88 21.42 26.07C21.23 26.25 20.98 26.36 20.71 26.36Z" fill="#FFFFFF" fill-opacity="1.000000" fill-rule="nonzero"></path>
	</g>
</svg>