<svg width="30.000000" height="30.000000" viewBox="0 0 30 30" fill="none" xmlns="http://www.w3.org/2000/svg" xmlns:xlink="http://www.w3.org/1999/xlink">
	<desc>
			Created with Pixso.
	</desc>
	<defs>
		<clipPath id="clip351_144">
			<rect id="user 1" width="30.000000" height="30.000000" fill="white" fill-opacity="0"/>
		</clipPath>
	</defs>
	<rect id="user 1" width="30.000000" height="30.000000" fill="#FFFFFF" fill-opacity="0"/>
	<g clip-path="url(#clip351_144)">
		<path id="Vector" d="M15 29.62C6.92 29.62 0.37 23.07 0.37 15C0.37 6.92 6.92 0.37 15 0.37C23.07 0.37 29.62 6.92 29.62 15C29.62 23.07 23.07 29.62 15 29.62Z" stroke="#2056AE" stroke-opacity="1.000000" stroke-width="1.000000"/>
		<path id="Vector" d="M23.25 22.5L6.75 22.5C7 20 6.75 16.12 10.5 15C13.87 15 16.5 14.99 19.5 15C23.25 16.12 23.37 20 23.25 22.5Z" fill="#6995DE" fill-opacity="1.000000" fill-rule="nonzero"/>
		<path id="Vector" d="M18.75 9.75C18.75 11.82 17.07 13.5 15 13.5C12.92 13.5 11.25 11.82 11.25 9.75C11.25 7.67 12.92 6 15 6C17.07 6 18.75 7.67 18.75 9.75Z" fill="#6995DE" fill-opacity="1.000000" fill-rule="evenodd"/>
	</g>
</svg>
