<svg width="40.000000" height="40.000000" viewBox="0 0 40 40" fill="none" xmlns="http://www.w3.org/2000/svg" xmlns:xlink="http://www.w3.org/1999/xlink">
	<desc>
			Created with Pixso.
	</desc>
	<defs>
		<clipPath id="clip286_563">
			<rect id="user 1" width="40.000000" height="40.000000" fill="white" fill-opacity="0"></rect>
		</clipPath>
	</defs>
	<rect id="user 1" width="40.000000" height="40.000000" fill="#FFFFFF" fill-opacity="0"></rect>
	<g clip-path="url(#clip286_563)">
		<path id="Vector" d="M20 39.5C9.23 39.5 0.5 30.76 0.5 20C0.5 9.23 9.23 0.5 20 0.5C30.76 0.5 39.5 9.23 39.5 20C39.5 30.76 30.76 39.5 20 39.5Z" stroke="#2056AE" stroke-opacity="1.000000" stroke-width="1.000000"></path>
		<path id="Форма 4" d="M10.99 21.45C12.36 21.45 13.48 20.23 13.48 18.72C13.48 17.22 12.36 16 10.99 16C9.61 16 8.49 17.22 8.49 18.72C8.49 20.23 9.61 21.45 10.99 21.45ZM5.5 28L16.48 28C16.56 26.18 16.48 23.36 13.98 22.54C12.68 22.54 11.48 22.54 10.18 22.54C9.49 22.54 8.77 22.54 7.99 22.54C5.5 23.36 5.66 26.18 5.5 28Z" fill="#6995DE" fill-opacity="1.000000" fill-rule="evenodd"></path>
		<path id="Форма 5" d="M29.99 21.45C31.36 21.45 32.48 20.23 32.48 18.72C32.48 17.22 31.36 16 29.99 16C28.61 16 27.49 17.22 27.49 18.72C27.49 20.23 28.61 21.45 29.99 21.45ZM24.5 28L35.48 28C35.56 26.18 35.48 23.36 32.98 22.54C31.68 22.54 30.48 22.54 29.18 22.54C28.49 22.54 27.77 22.54 26.99 22.54C24.5 23.36 24.66 26.18 24.5 28Z" fill="#6995DE" fill-opacity="1.000000" fill-rule="evenodd"></path>
		<path id="Форма 6" d="M19.99 14.45C21.36 14.45 22.48 13.23 22.48 11.72C22.48 10.22 21.36 9 19.99 9C18.61 9 17.49 10.22 17.49 11.72C17.49 13.23 18.61 14.45 19.99 14.45ZM14.5 21L25.48 21C25.56 19.18 25.48 16.36 22.98 15.54C21.68 15.54 20.48 15.54 19.18 15.54C18.49 15.54 17.77 15.54 16.99 15.54C14.5 16.36 14.66 19.18 14.5 21Z" fill="#6995DE" fill-opacity="1.000000" fill-rule="evenodd"></path>
	</g>
</svg>