<svg width="60.000000" height="60.000000" viewBox="0 0 60 60" fill="none" xmlns="http://www.w3.org/2000/svg" xmlns:xlink="http://www.w3.org/1999/xlink">
	<desc>
		Created with Pixso.
	</desc>
	<defs>
		<clipPath id="clip341_45">
			<rect id="Иконка 6" rx="30.000000" width="60.000000" height="60.000000" fill="white" fill-opacity="0"/>
		</clipPath>
	</defs>
	<rect id="Иконка 6" rx="30.000000" width="60.000000" height="60.000000" fill="#FFFFFF" fill-opacity="1.000000"/>
	<g clip-path="url(#clip341_45)">
		<path id="Vector 879" d="M19 34.1L23.42 17L29.5 22.7L35.57 17L39.81 34.1L37.97 34.1L34.47 20.61L29.5 25.36L24.52 20.61L21.02 34.1L19 34.1Z" fill="#2056AE" fill-opacity="1.000000" fill-rule="evenodd"/>
		<path id="Vector 880" d="M21.94 34.1L24.89 22.13L29.56 26.31L33.92 22.13L36.86 34.1L34.84 34.1L33 25.55L29.56 28.78L26 25.55L24.01 34.1L21.94 34.1Z" fill="#2056AE" fill-opacity="1.000000" fill-rule="evenodd"/>
		<path id="Vector 881" d="M26.36 27.07L25.07 34.1L27.1 34.1L29.31 32.2L31.15 34.1L33.73 34.1L30.6 31.06L33 28.78L32.63 27.07L27.65 31.44L28.21 28.78L26.36 27.07Z" fill="#2056AE" fill-opacity="1.000000" fill-rule="evenodd"/>
		<path id="Форма 10" d="M19.67 38.62L23.37 38.62Q23.3 38.34 23.17 38.1L23.17 38.1L23.17 38.1Q23.13 38.03 23.1 37.97Q22.87 37.62 22.57 37.37L22.57 37.37Q22.41 37.24 22.22 37.14Q21.88 36.95 21.52 36.88L21.52 36.88Q21.31 36.84 21.1 36.84Q20.62 36.84 20.21 36.98Q19.81 37.1 19.51 37.31Q19.2 37.52 19 37.75L19 36.21Q19.22 36.02 19.48 35.87Q19.68 35.75 19.91 35.67Q20.41 35.47 21.16 35.47Q21.96 35.47 22.63 35.74Q23.04 35.9 23.38 36.16L23.38 36.16Q23.6 36.32 23.79 36.51C24.12 36.85 24.37 37.25 24.55 37.71Q24.83 38.4 24.83 39.23Q24.83 40.07 24.55 40.76C24.37 41.22 24.12 41.61 23.79 41.95C23.46 42.29 23.07 42.55 22.63 42.73Q21.96 43 21.16 43Q20.41 43 19.91 42.8Q19.7 42.72 19.5 42.61Q19.23 42.45 19 42.25L19 40.72C19.13 40.87 19.3 41.02 19.51 41.16Q19.81 41.36 20.21 41.49C20.48 41.58 20.78 41.62 21.1 41.62C21.49 41.62 21.87 41.52 22.22 41.32Q22.41 41.21 22.58 41.08Q22.88 40.83 23.1 40.48Q23.14 40.41 23.19 40.33L23.19 40.33Q23.3 40.1 23.37 39.84L19.67 39.84L19.67 38.62ZM30.77 36.95L30.77 42.85L32.2 42.85L32.2 35.62L26.36 35.62L26.36 42.85L27.79 42.85L27.79 36.95L30.77 36.95ZM38.57 42.85L38.57 36.95L35.59 36.95L35.59 42.85L34.16 42.85L34.16 35.62L40 35.62L40 42.85L38.57 42.85Z" fill="#D22027" fill-opacity="1.000000" fill-rule="evenodd"/>
	</g>
</svg>
