<svg width="22.000000" height="22.000000" viewBox="0 0 22 22" fill="none" xmlns="http://www.w3.org/2000/svg" xmlns:xlink="http://www.w3.org/1999/xlink">
	<desc>
			Created with Pixso.
	</desc>
	<defs/>
	<rect id="Icon-cog" width="22.000000" height="22.000000" fill="#FFFFFF" fill-opacity="0"/>
	<path id="cog" d="M17.09 11.77C17.16 11.29 17.07 10.54 17.03 10.2L18.54 9.2C18.96 8.91 19.09 8.35 18.85 7.91L17.74 5.94C17.49 5.48 16.93 5.29 16.46 5.49L14.86 6.23C14.45 5.9 13.78 5.54 13.3 5.35L13.09 3.86C13.02 3.36 12.59 3 12.09 3L9.91 3C9.4 3 8.98 3.37 8.91 3.86L8.71 5.33C8.13 5.57 7.56 5.92 7.14 6.23L5.58 5.48C5.12 5.3 4.63 5.34 4.38 5.77L3.13 7.67C2.89 8.09 2.98 8.62 3.35 8.94L4.92 10.2C4.87 10.56 4.83 11.29 4.9 11.79L3.42 12.8C3 13.1 2.87 13.67 3.13 14.12L4.34 16.13C4.6 16.58 5.15 16.76 5.63 16.55L7.14 15.75C7.55 16.06 8.22 16.47 8.71 16.66L8.88 18.1C8.94 18.61 9.37 18.99 9.88 18.99L12.13 19C12.64 19 13.07 18.62 13.13 18.11L13.29 16.65C13.88 16.41 14.46 16.11 14.87 15.78L16.52 16.46C17 16.68 17.57 16.5 17.82 16.03L18.87 14.15C19.11 13.71 18.99 13.17 18.58 12.87L17.09 11.77ZM11 13.72C7.76 13.72 7.55 8.72 11 8.72C14.4 8.72 14.24 13.72 11 13.72Z" fill="#2056AE" fill-opacity="1.000000" fill-rule="evenodd"/>
</svg>
